<svg width="22" height="21" viewBox="0 0 22 21" fill="none" xmlns="http://www.w3.org/2000/svg">
<path d="M1.29004 4.99698H19.9567" stroke="#252420" stroke-width="1.16667" stroke-linecap="round"/>
<path d="M1.29004 10.83H19.9567" stroke="#252420" stroke-width="1.16667" stroke-linecap="round"/>
<path d="M1.29004 16.663H19.9567" stroke="#252420" stroke-width="1.16667" stroke-linecap="round"/>
<path d="M5.95508 6.74664C6.92158 6.74664 7.70508 5.96314 7.70508 4.99664C7.70508 4.03014 6.92158 3.24664 5.95508 3.24664C4.98858 3.24664 4.20508 4.03014 4.20508 4.99664C4.20508 5.96314 4.98858 6.74664 5.95508 6.74664Z" fill="white" stroke="#252420" stroke-width="1.16667"/>
<path d="M15.291 12.5797C16.2575 12.5797 17.041 11.7961 17.041 10.8297C17.041 9.86315 16.2575 9.07965 15.291 9.07965C14.3245 9.07965 13.541 9.86315 13.541 10.8297C13.541 11.7961 14.3245 12.5797 15.291 12.5797Z" fill="white" stroke="#252420" stroke-width="1.16667"/>
<path d="M7.12305 18.4127C8.08955 18.4127 8.87305 17.6292 8.87305 16.6627C8.87305 15.6962 8.08955 14.9127 7.12305 14.9127C6.15655 14.9127 5.37305 15.6962 5.37305 16.6627C5.37305 17.6292 6.15655 18.4127 7.12305 18.4127Z" fill="white" stroke="#252420" stroke-width="1.16667"/>
</svg>
